<?xml version="1.0" encoding="utf-8"?>
<svg version="1.1" xmlns="http://www.w3.org/2000/svg" width="2000" height="2000" viewBox="0 0 2000 2000"><defs><linearGradient id="gradient-2"/><linearGradient gradientUnits="userSpaceOnUse" x1="991.219" y1="75.245" x2="991.219" y2="1909.245" id="gradient-0"><stop offset="0" style=""/><stop offset="1" style="stop-color: rgb(42, 42, 42);"/></linearGradient></defs><rect style="stroke: rgb(0, 0, 0); transform-box: fill-box; transform-origin: 50% 50%; filter: none; fill-rule: nonzero; paint-order: fill; fill: url(&quot;#gradient-0&quot;);" x="74.219" y="75.245" width="1834" height="1834" rx="400" ry="400"/><path d="M0 0 C23.04164479 8.06457568 23.04164479 8.06457568 31.98046875 11.3203125 C33.0173735 11.69700073 34.05427826 12.07368896 35.12260437 12.46179199 C38.4780915 13.68143199 41.832849 14.90306225 45.1875 16.125 C46.3641925 16.55319031 47.54088501 16.98138062 48.75323486 17.42254639 C73.09463266 26.28117634 97.40088743 35.23453746 121.70228577 44.20225525 C133.4640811 48.54186494 145.23144863 52.8662517 157 57.1875 C159.01676571 57.92813751 161.03353003 58.66877877 163.05029297 59.40942383 C169.03342189 61.60657335 175.016696 63.80332731 181 66 C189.00013923 68.93712093 197.00018424 71.87449815 205 74.8125 C205.99845947 75.17918793 206.99691895 75.54587585 208.02563477 75.92367554 C226.06643074 82.54983075 244.10086912 89.1931861 262.13427734 95.8394165 C284.75170841 104.17481818 307.37630539 112.49059149 330.00390625 120.79833984 C339.14618233 124.15504778 348.28778088 127.51360019 357.42944336 130.87197876 C362.53626903 132.74805809 367.64313659 134.62402339 372.75 136.5 C374.79166687 137.24999945 376.83333353 137.99999945 378.875 138.75 C380.3909375 139.306875 380.3909375 139.306875 381.9375 139.875 C391.12499996 143.24999999 391.12499996 143.24999999 394.18762207 144.37504578 C396.22888103 145.12489538 398.27014079 145.8747428 400.31140137 146.62458801 C405.42181258 148.50187101 410.53220968 150.37919238 415.64257812 152.2565918 C424.75553759 155.60438425 433.86858413 158.95193831 442.98217773 162.29800415 C467.03836325 171.13028979 491.0889901 179.97750215 515.13427734 188.8394165 C536.71598294 196.79311313 558.30393302 204.7296913 579.89546204 212.65667725 C587.32024685 215.38272474 594.74422523 218.11096197 602.16796875 220.83984375 C605.45205803 222.04686904 608.7361589 223.25386279 612.02026367 224.46084595 C614.08248407 225.21883871 616.1446608 225.97695028 618.20678711 226.73519897 C621.08955201 227.79517139 623.97249493 228.85465845 626.85546875 229.9140625 C628.05927437 230.35690834 628.05927437 230.35690834 629.28739929 230.80870056 C639.51525149 234.56595119 649.75972183 238.27626248 660 242 C660 291.83 660 341.66 660 393 C601.24658203 414.64599609 601.24658203 414.64599609 580.06445312 422.44726562 C561.03914849 429.45453113 542.01626638 436.46824147 523 443.5 C498.77512312 452.45777759 474.53886221 461.38458952 450.30224609 470.31054688 C439.55161908 474.26991758 428.80153784 478.23076965 418.05142212 482.19152832 C412.11763774 484.37774797 406.18381701 486.56386893 400.25 488.75 C397.87499983 489.62499953 395.49999983 490.49999953 393.125 491.375 C388.375 493.125 383.625 494.875 378.875 496.625 C377.69943039 497.05810486 376.52386078 497.49120972 375.31266785 497.93743896 C372.93710905 498.8126443 370.56154956 499.68784775 368.18598938 500.56304932 C362.25703324 502.74739223 356.32808909 504.93176766 350.39916992 507.11621094 C339.60971555 511.09142676 328.82016583 515.06638294 318.03018188 519.04016113 C295.01609539 527.51590001 272.0029453 535.99406336 249 544.5 C224.77512312 553.45777759 200.53886221 562.38458952 176.30224609 571.31054688 C169.10365387 573.96173133 161.90530123 576.61356577 154.70703125 579.265625 C153.53362183 579.69794434 152.3602124 580.13026367 151.15124512 580.57568359 C147.6008259 581.88377772 144.0504119 583.19188601 140.5 584.5 C127.34386125 589.3472486 114.18771616 594.19447937 101.03089905 599.03988647 C97.37220872 600.38733712 93.71356586 601.73491655 90.05493164 603.08251953 C85.2717236 604.84434179 80.48833284 606.60566673 75.70483398 608.36669922 C64.31367884 612.56135548 52.92634495 616.76592567 41.546875 620.9921875 C39.41562614 621.78292455 37.28436025 622.57361569 35.15307617 623.36425781 C31.21186181 624.82635954 27.27213276 626.29236739 23.33325195 627.76074219 C21.56727852 628.41617318 19.80124986 629.07145541 18.03515625 629.7265625 C17.26173889 630.01618866 16.48832153 630.30581482 15.69146729 630.60421753 C10.16345607 632.64912489 4.67581193 634.29725642 -1 636 C-1 579.57 -1 523.14 -1 465 C2.92598898 463.03700551 6.02163951 461.54156253 10.08496094 460.29272461 C11.06055969 459.99004166 12.03615845 459.6873587 13.0413208 459.37550354 C14.09502869 459.05436081 15.14873657 458.73321808 16.234375 458.40234375 C17.35720886 458.05546005 18.48004272 457.70857635 19.63690186 457.35118103 C23.33978089 456.20839769 27.04485349 455.07290797 30.75 453.9375 C33.32520338 453.1451242 35.89992957 452.35120412 38.47460938 451.55712891 C42.49519029 450.31739429 46.51590289 449.0780975 50.53735352 447.84118652 C59.56968458 445.06242592 68.59560442 442.26366298 77.61698151 439.44954872 C79.65232951 438.81469031 81.68780573 438.1802448 83.72332764 437.54594421 C85.05285657 437.13162272 86.38238538 436.71730083 87.71191406 436.30297852 C88.68558237 435.99955489 88.68558237 435.99955489 89.67892075 435.69000149 C92.90899122 434.68323703 96.13878327 433.67559464 99.36804199 432.66622925 C102.96330953 431.54312269 106.55964729 430.42350965 110.15625 429.3046875 C111.23058289 428.96807602 112.30491577 428.63146454 113.4118042 428.28465271 C114.38772522 427.98172806 115.36364624 427.67880341 116.36914062 427.36669922 C117.22012329 427.10122284 118.07110596 426.83574646 118.94787598 426.56222534 C121 426 121 426 123 426 C122.67 354.39 122.34 282.78 122 209 C100.55 202.4 79.1 195.8 57 189 C2.26943005 172.13471503 2.26943005 172.13471503 0 171 C0 114.57 0 58.14 0 0 Z M247 248 C246.82629201 260.45824221 246.6600353 272.91657471 246.5 285.375 C246.48812275 286.29928551 246.4762455 287.22357101 246.46400833 288.17586517 C246.03894504 321.45288325 245.86428621 354.72027055 246 388 C265.67004925 382.26218969 285.24137971 376.23307162 304.79519653 370.11294556 C312.47441213 367.7094404 320.15569709 365.3125602 327.8367939 362.9150753 C330.40889356 362.11220777 332.98092965 361.30913685 335.55296326 360.50605774 C349.71557949 356.08475958 363.88595028 351.68893631 378.0625 347.3125 C379.11611725 346.98719299 380.1697345 346.66188599 381.25527954 346.32672119 C386.71066098 344.64257102 392.16630044 342.95925856 397.62207031 341.27636719 C406.24606843 338.61595829 414.86912686 335.95250812 423.4921875 333.2890625 C425.08281939 332.79776436 426.67345151 332.30646695 428.26408386 331.81517029 C430.63896338 331.08164388 433.01384279 330.34811714 435.38872051 329.61458492 C443.61189415 327.07470755 451.83522886 324.53535184 460.05859375 321.99609375 C460.7256773 321.79010685 461.39276085 321.58411995 462.08005905 321.37189102 C465.72003525 320.24791403 469.36001546 319.12394999 473 318 C470.00714936 316.00476624 467.68541742 315.1534795 464.26855469 314.10253906 C463.07361389 313.73235657 461.8786731 313.36217407 460.64752197 312.98077393 C459.3223302 312.57564616 457.99711372 312.17059919 456.671875 311.765625 C455.28028105 311.33643537 453.88882513 310.90679797 452.49749756 310.47674561 C449.49764907 309.55051329 446.49688022 308.62734769 443.49536133 307.70654297 C438.6900838 306.23234397 433.88687887 304.75147276 429.08398438 303.26953125 C423.22711174 301.46283267 417.36977129 299.65766649 411.5118103 297.85449982 C397.67879039 293.59625316 383.85372733 289.31248629 370.02982998 285.0247345 C364.94558387 283.44786187 359.86075261 281.87288707 354.77563477 280.29882812 C340.88746572 275.99930871 327.00185104 271.69189992 313.12313843 267.36193848 C307.36110456 265.56432547 301.59805067 263.76999273 295.8347683 261.97638702 C291.13975372 260.51490314 286.44613016 259.0490605 281.75352001 257.57987595 C278.85444383 256.67338857 275.95405983 255.77114407 273.05330849 254.87003326 C271.71691934 254.45394242 270.38106875 254.03611692 269.04582787 253.6163559 C261.75145768 251.32422048 254.54334193 249.28460308 247 248 Z " fill="#FEFEFE" transform="translate(910,683)"/><path d="M0 0 C6.63956673 1.99187002 13.14141192 4.04736198 19.640625 6.4140625 C20.54382477 6.74062332 21.44702454 7.06718414 22.37759399 7.40364075 C25.33614355 8.47447114 28.29312696 9.54954973 31.25 10.625 C33.35040108 11.38686107 35.45082466 12.14866007 37.55126953 12.91040039 C56.47525314 19.78096494 75.35758499 26.76312078 94.23600769 33.75764465 C105.25404332 37.83789851 116.28294508 41.8885099 127.3125 45.9375 C128.3309198 46.31142883 129.3493396 46.68535767 130.39862061 47.07061768 C136.57957146 49.34003778 142.7607309 51.60888928 148.94195557 53.87756348 C157.96167547 57.18819655 166.98094574 60.50005398 176 63.8125 C176.99746246 64.17882538 177.99492493 64.54515076 179.02261353 64.9225769 C197.06441777 71.54909516 215.09986362 78.19281552 233.13427734 84.8394165 C255.75170841 93.17481818 278.37630539 101.49059149 301.00390625 109.79833984 C307.07574959 112.02769767 313.1472901 114.2578794 319.21875 116.48828125 C320.23162079 116.86036209 321.24449158 117.23244293 322.28805542 117.61579895 C327.39668073 119.49249847 332.50525472 121.36933759 337.61376953 123.24633789 C346.85530623 126.64176163 356.09718738 130.03623283 365.34077454 133.42607117 C386.72061052 141.26658857 408.09240685 149.12780869 429.4375 157.0625 C430.37503113 157.41064758 431.31256226 157.75879517 432.27850342 158.11749268 C434.89317537 159.08877591 437.50724776 160.06165276 440.12109375 161.03515625 C440.89562393 161.32277328 441.67015411 161.61039032 442.46815491 161.90672302 C447.76941805 163.88470903 447.76941805 163.88470903 450 165 C450.39813917 167.17354496 450.69296729 169.36636333 450.9375 171.5625 C452.14284984 180.63482779 453.99768644 187.72333626 461 194 C469.7982901 199.73655788 480.53855454 202.19397733 490.48046875 205.21875 C492.38105328 205.80416178 494.28138363 206.39039932 496.18147278 206.97741699 C501.16607904 208.51521509 506.15373116 210.04287852 511.14221191 211.5680542 C518.14414101 213.71084603 525.14179547 215.86756444 532.13996887 218.02258301 C535.8564168 219.16697972 539.57396548 220.30767901 543.29252625 221.44519043 C545.01818246 221.97451446 546.74383471 222.50385139 548.46948242 223.03320312 C549.21335709 223.25984146 549.95723175 223.4864798 550.72364807 223.71998596 C558.19818441 226.01671751 565.57364936 228.52454979 573 231 C573 288.75 573 346.5 573 406 C544.14614408 415.2332339 544.14614408 415.2332339 534.765625 418.18359375 C533.67966537 418.5254068 532.59370575 418.86721985 531.47483826 419.21939087 C529.21232106 419.9314585 526.94974314 420.64333325 524.68710327 421.35501099 C521.16131872 422.46542948 517.63684242 423.57992761 514.11254883 424.69506836 C504.222153 427.82007171 494.33686787 430.94318044 484.37109375 433.8203125 C483.0223803 434.21530094 481.67374313 434.61054996 480.32519531 435.00610352 C478.00895661 435.67874545 475.68706318 436.33241838 473.35839844 436.96069336 C466.0465611 439.09811732 461.17425561 442.40257615 456 448 C455.16758789 448.82745728 455.16758789 448.82745728 454.31835938 449.67163086 C452.92697185 452.12897582 452.72973085 453.49924707 452.47143555 456.27001953 C451.30258051 468.75223212 451.30258051 468.75223212 447.4385376 472.52429199 C442.37028277 475.74892839 436.53067308 477.21213187 430.8125 478.875 C428.89445042 479.49954034 426.97929526 480.13302882 425.06689453 480.7746582 C420.92235358 482.15893792 416.76807463 483.50612276 412.60498047 484.83349609 C402.26842926 488.1734643 392.12417428 492.04653466 381.95248413 495.8526001 C375.89030275 498.11463818 369.81566833 500.34273876 363.7421875 502.57421875 C361.27826361 503.48080294 358.8143964 504.3875412 356.35058594 505.29443359 C355.13350952 505.74236267 353.91643311 506.19029175 352.66247559 506.65179443 C343.12363745 510.16316656 333.58612266 513.67813242 324.04840088 517.1925354 C318.11566963 519.37854435 312.1828292 521.56425691 306.25 523.75 C303.87499948 524.62499859 301.49999948 525.49999859 299.125 526.375 C294.375 528.125 289.625 529.875 284.875 531.625 C283.69943039 532.05810486 282.52386078 532.49120972 281.31266785 532.93743896 C278.93710905 533.8126443 276.56154956 534.68784775 274.18598938 535.56304932 C268.25703324 537.74739223 262.32808909 539.93176766 256.39916992 542.11621094 C245.60971555 546.09142676 234.82016583 550.06638294 224.03018188 554.04016113 C201.01609539 562.51590001 178.0029453 570.99406336 155 579.5 C138.06673571 585.7615144 121.12856664 592.00962623 104.1875 598.25 C102.41525558 598.9028447 102.41525558 598.9028447 100.60720825 599.56887817 C88.80164792 603.91760725 76.99573169 608.26536926 65.18939495 612.61198997 C59.98369562 614.52853763 54.77811227 616.44540008 49.57259846 618.36245155 C45.30729024 619.93321414 41.04172908 621.50328856 36.77612305 623.07324219 C34.52651345 623.90164792 32.27691981 624.73009697 30.02734375 625.55859375 C28.96871628 625.9481424 27.91008881 626.33769104 26.81938171 626.73904419 C22.17495673 628.45036721 17.53442012 630.17011949 12.90673828 631.92626953 C11.77456627 632.35541405 11.77456627 632.35541405 10.61952209 632.79322815 C8.6729006 633.53339893 6.72808544 634.2783157 4.78344727 635.02368164 C2 636 2 636 0 636 C0 579.24 0 522.48 0 464 C28.90511301 454.75036384 28.90511301 454.75036384 41.83984375 450.6875 C43.31125406 450.22488649 44.78265368 449.76223899 46.25404358 449.29956055 C49.29089219 448.34478912 52.3278857 447.39048047 55.36499023 446.43652344 C58.41174564 445.47949481 61.45829331 444.52180961 64.50463867 443.56347656 C74.66693749 440.36661547 84.83132047 437.17651194 95 434 C95.66887489 433.79101074 96.33774979 433.58202148 97.02689362 433.36669922 C101.37171708 432.00985253 105.7185049 430.65945909 110.06640625 429.3125 C111.15485336 428.97323486 112.24330048 428.63396973 113.36473083 428.28442383 C114.34982132 427.98044678 115.3349118 427.67646973 116.34985352 427.36328125 C117.20547379 427.09813721 118.06109406 426.83299316 118.94264221 426.55981445 C121 426 121 426 123 426 C122.67 354.39 122.34 282.78 122 209 C100.55 202.4 79.1 195.8 57 189 C2.26943005 172.13471503 2.26943005 172.13471503 0 171 C0 114.57 0 58.14 0 0 Z M247 248 C247 293.87 247 339.74 247 387 C255.20267168 385.38885057 255.20267168 385.38885057 263.13745117 383.20678711 C264.24275177 382.86069901 265.34805237 382.5146109 266.48684692 382.15803528 C267.66036713 381.78490707 268.83388733 381.41177887 270.04296875 381.02734375 C271.96913676 380.42217506 273.89530539 379.81700835 275.82149887 379.21192074 C277.86632177 378.56851511 279.91033667 377.9226015 281.95413208 377.27593994 C286.26320057 375.91270966 290.574581 374.55690093 294.88647461 373.20263672 C295.61308194 372.97440468 296.33968927 372.74617264 297.08831501 372.51102448 C298.56172664 372.04821859 300.03514361 371.58542972 301.5085659 371.12265778 C303.73367273 370.42354727 305.95857392 369.7237858 308.1834259 369.02386475 C321.46300661 364.84724474 334.75959921 360.72672151 348.0625 356.625 C352.50529407 355.25418401 356.94796498 353.88296909 361.390625 352.51171875 C362.52698395 352.1610434 363.6633429 351.81036804 364.83413696 351.44906616 C374.65714665 348.41681442 384.47733978 345.37551261 394.296875 342.33203125 C395.08421461 342.08800819 395.87155422 341.84398514 396.68275261 341.59256744 C403.7367258 339.40624119 410.79058282 337.2195403 417.8442688 335.0322876 C436.22294141 329.33335071 454.6057206 323.64841265 473 318 C470.30929828 316.20619885 468.49019488 315.40104742 465.46191406 314.46972656 C464.52711212 314.17958679 463.59231018 313.88944702 462.62918091 313.59051514 C461.08797073 313.12031952 461.08797073 313.12031952 459.515625 312.640625 C458.42780731 312.30444153 457.33998962 311.96825806 456.21920776 311.62188721 C452.564175 310.49342946 448.90707336 309.37182539 445.25 308.25 C442.63491748 307.44444867 440.02032544 306.63731151 437.40576172 305.83007812 C432.53619042 304.32710136 427.66611946 302.8257632 422.79543877 301.3263855 C413.62854132 298.50429324 404.46563732 295.66945979 395.3046875 292.828125 C394.60700445 292.6117337 393.9093214 292.39534241 393.19049644 292.1723938 C390.33767629 291.28754017 387.4848606 290.40267214 384.63206768 289.51773071 C379.53851522 287.9378767 374.4443399 286.36004272 369.34985352 284.78320312 C355.20302708 280.40411906 341.05769632 276.0204034 326.91829681 271.61738586 C319.18238847 269.20843361 311.44549311 266.80266997 303.70796967 264.39891052 C299.00248604 262.93685048 294.29759879 261.47292898 289.59405518 260.00463867 C285.17513727 258.62520957 280.75477431 257.25051266 276.33331108 255.87926483 C274.70596054 255.37363111 273.07914727 254.86626435 271.45292854 254.35700226 C269.20987842 253.65484476 266.96494488 252.95904636 264.71948242 252.26464844 C263.4635881 251.87355896 262.20769379 251.48246948 260.91374207 251.07952881 C256.33459088 249.81645998 251.65790978 248.93158196 247 248 Z " fill="#FFFFFF" transform="translate(431,682)"/></svg>
