<?xml version="1.0" standalone="no"?>
<!DOCTYPE svg PUBLIC "-//W3C//DTD SVG 20010904//EN"
 "http://www.w3.org/TR/2001/REC-SVG-20010904/DTD/svg10.dtd">
<svg version="1.0" xmlns="http://www.w3.org/2000/svg"
 width="2000.000000pt" height="2000.000000pt" viewBox="0 0 2000.000000 2000.000000"
 preserveAspectRatio="xMidYMid meet">

<g transform="translate(0.000000,2000.000000) scale(0.100000,-0.100000)"
fill="#000000" stroke="none">
<path d="M0 10000 l0 -10000 10000 0 10000 0 0 10000 0 10000 -10000 0 -10000
0 0 -10000z m6550 2355 c1207 -444 2206 -811 2220 -816 23 -8 27 -18 38 -85 6
-41 20 -94 30 -118 21 -47 77 -108 120 -130 15 -8 248 -82 517 -165 270 -84
505 -157 523 -162 l32 -11 0 -872 0 -873 -522 -163 c-288 -89 -536 -169 -552
-177 -16 -8 -48 -35 -72 -60 -45 -46 -68 -103 -82 -201 l-7 -46 -2230 -822
c-1227 -453 -2236 -823 -2243 -824 -10 0 -12 174 -10 852 l3 853 610 190 610
190 7 110 c5 61 7 551 5 1089 l-2 980 -600 185 c-330 103 -608 190 -617 193
-21 9 -22 88 -11 1082 6 557 8 617 22 613 9 -2 1004 -368 2211 -812z m5868
-408 l3273 -1204 -1 -748 c0 -412 -2 -750 -3 -751 -3 -3 -6550 -2416 -6569
-2422 -17 -4 -18 41 -18 849 l0 854 613 191 612 190 2 1090 3 1089 -615 190
-615 189 0 849 0 849 23 -6 c12 -3 1495 -547 3295 -1209z"/>
<path d="M6780 10005 c0 -585 2 -706 13 -702 8 3 518 162 1135 353 617 191
1121 349 1119 350 -1 1 -505 158 -1120 349 -615 190 -1125 349 -1133 352 -12
4 -14 -92 -14 -702z"/>
<path d="M11560 9995 c0 -668 1 -706 18 -701 411 126 2223 689 2237 695 l20 8
-20 6 c-11 4 -515 160 -1120 347 -605 187 -1108 343 -1117 346 -17 5 -18 -33
-18 -701z"/>
</g>
</svg>
